# xmcd CD database file
#
# Track frame offsets:
#	150
#	20038
#	38060
#	52550
#	66347
#	79785
#	98003
#	113138
#	129192
#	143470
#	160849
#	172690
#
# Disc length: 2564 seconds
#
# Revision: 0
# Processed by: cddbd v1.5.1PL0 Copyright (c) Steve Scherf et al.
# Submitted via: CDex 1.60beta1
#
DISCID=850a020c
DTITLE=J.BARBETTI - Sntimental Sax
DYEAR=2000
DGENRE=Jazz
TTITLE0=My way
TTITLE1=Brooklyn heights
TTITLE2=Blues in the night
TTITLE3=Swing time for Sally
TTITLE4=Petite fleur
TTITLE5=Feelings
TTITLE6=Just the way you are
TTITLE7=Saving all my love for you
TTITLE8=The house of the rising sun
TTITLE9=Love is all around
TTITLE10=How deep is your love
TTITLE11=Endless love
EXTD=YEAR: 2000
EXTT0=
EXTT1=
EXTT2=
EXTT3=
EXTT4=
EXTT5=
EXTT6=
EXTT7=
EXTT8=
EXTT9=
EXTT10=
EXTT11=
PLAYORDER=
